# xmcd
#
# Track frame offsets: 
#        150
#        16794
#        29181
#        44056
#        57407
#        72916
#        86844
#        99789
#        113462
#        131221
#        143612
#        155468
#        168791
#        180173
#
# Disc length: 2589 seconds
#
# Revision: 0
# Processed by: cddbd v1.5.2PL0 Copyright (c) Steve Scherf et al.
# Submitted via: ExactAudioCopyFreeDBPlugin 1.0
#
DISCID=b30a1b0e
DTITLE=Tiny Legs Tim - One Man Blues
DYEAR=2011
DGENRE=
TTITLE0=Something's Burning
TTITLE1=Ocean
TTITLE2=The Happiest Man In Town
TTITLE3=Standing At The Crossroad
TTITLE4=Easy To Catch As A Fool
TTITLE5=A Little Bit Of Lovin'
TTITLE6=Poor Boy
TTITLE7=One Step At A Time
TTITLE8=Everybody's Drinking
TTITLE9=I Believe
TTITLE10=Evil
TTITLE11=Ramblin' On My Mind
TTITLE12=Hardcore Blues
TTITLE13=Roadtrip Part 1
EXTD=
EXTT0=
EXTT1=
EXTT2=
EXTT3=
EXTT4=
EXTT5=
EXTT6=
EXTT7=
EXTT8=
EXTT9=
EXTT10=
EXTT11=
EXTT12=
EXTT13=
PLAYORDER=
